<svg width="271" height="97" viewBox="0 0 271 97" fill="none" xmlns="http://www.w3.org/2000/svg">
<path fill-rule="evenodd" clip-rule="evenodd" d="M102.301 85.5286C104.461 73.2072 90.6751 64.9188 80.8384 71.9C78.6226 73.4761 75.934 78.26 71.1593 80.0586C66.3661 81.8572 61.4988 80.1698 57.9479 76.7581C57.132 75.97 56.2791 75.1727 54.9904 74.4495C47.7496 70.3424 39.8506 74.7648 37.7831 81.0135C33.8799 92.8065 48.3244 102.411 57.7439 93.1588C60.0061 90.9429 62.602 89.0516 67.1449 89.0424C72.1606 89.0331 74.8307 89.8119 76.6478 90.8966C80.9497 93.4554 81.5987 96.7652 88.0978 96.9878C94.6061 97.2195 101.077 92.5283 102.301 85.5286ZM187.92 41.574C187.92 39.7475 188.217 38.088 188.82 36.6046C189.422 35.112 190.257 33.8418 191.314 32.7942C192.38 31.7465 193.641 30.9307 195.115 30.3651C196.589 29.7996 198.202 29.5122 199.964 29.5122C201.725 29.5122 203.348 29.7903 204.84 30.3466C206.333 30.9028 207.612 31.7002 208.688 32.7478C209.763 33.7862 210.598 35.0471 211.2 36.5119C211.803 37.9768 212.1 39.6271 212.1 41.4535C212.1 43.2335 211.803 44.856 211.2 46.3301C210.598 47.8042 209.763 49.0651 208.688 50.1313C207.612 51.1975 206.333 52.0133 204.84 52.5974C203.348 53.1815 201.725 53.4689 199.964 53.4689C198.202 53.4689 196.589 53.1815 195.115 52.6159C193.641 52.0504 192.38 51.2438 191.314 50.2055C190.247 49.1671 189.422 47.9154 188.82 46.4599C188.217 44.9765 187.92 43.354 187.92 41.574Z" fill="#FFC602"/>
<path fill-rule="evenodd" clip-rule="evenodd" d="M133.824 62.6937V65.9479H130.05V62.6937H128.28V70.9728H130.05V67.5518H133.824V70.9728H135.594V62.6937H133.824ZM129.503 29.5029H145.005C146.154 29.5029 147.267 29.6141 148.333 29.8274C149.409 30.0406 150.354 30.4115 151.189 30.9307C152.023 31.4498 152.691 32.1452 153.182 33.0259C153.683 33.9067 153.924 35.0192 153.924 36.3728C153.924 38.1343 153.441 39.5899 152.487 40.7488C151.532 41.9077 150.159 42.6123 148.379 42.8626L154.739 53.4504H149.594L144.05 43.3077H137.402L129.503 29.5029ZM253.913 53.5894H264.102C268.135 53.5894 271 50.6875 271 46.7102C271 44.1699 269.674 42.2137 267.366 41.2031C269.007 40.1648 269.943 38.4125 269.943 36.1596C269.943 32.0803 267.208 29.6327 263.045 29.6327H253.913V53.5894ZM263.055 33.1465C265.113 33.1465 266.429 34.4352 266.429 36.3821C266.429 38.4032 265.159 39.8124 263.305 39.8124H257.445V33.1465H263.055ZM264.121 50.0664H257.445V43.1223H263.305C265.975 43.1223 267.486 44.5871 267.486 46.5711C267.486 48.6015 266.16 50.0756 264.111 50.0756H264.121V50.0664ZM238.662 50.0664C238.662 47.9247 240.183 46.0705 242.88 44.7076C245.106 43.6136 251.271 41.5462 251.271 36.1133C251.271 31.6538 247.887 29.4844 243.585 29.4844C239.441 29.4844 235.76 31.6816 235.695 36.3635H239.218C239.357 34.1941 241.017 32.8684 243.585 32.8684C246.098 32.8684 247.748 34.1385 247.748 36.0484C247.748 38.0509 246.709 39.1542 242.204 41.4071C238.542 43.2428 235.13 45.3566 235.13 50.6875V53.5894H251.438V50.0664H238.662ZM216.337 53.5894H226.526C230.559 53.5894 233.424 50.6875 233.424 46.7102C233.424 44.1699 232.098 42.2137 229.79 41.2031C231.431 40.1648 232.367 38.4125 232.367 36.1596C232.367 32.0803 229.632 29.6327 225.469 29.6327H216.337V53.5894ZM225.469 33.1465C227.527 33.1465 228.844 34.4352 228.844 36.3821C228.844 38.4032 227.574 39.8124 225.719 39.8124H219.86V33.1465H225.469ZM226.545 50.0664H219.869V43.1223H225.729C228.399 43.1223 229.91 44.5871 229.91 46.5711C229.91 48.6015 228.584 50.0756 226.535 50.0756H226.545V50.0664ZM182.738 35.4272C181.904 34.5279 181.088 33.9253 180.309 33.6286C179.531 33.3319 178.733 33.1743 177.945 33.1743C176.768 33.1743 175.702 33.3875 174.747 33.8047C173.792 34.222 172.967 34.806 172.281 35.5477C171.594 36.2894 171.066 37.1516 170.686 38.1344C170.315 39.1264 170.12 40.1833 170.12 41.3237C170.12 42.5474 170.306 43.6692 170.686 44.7076C171.066 45.7367 171.594 46.6267 172.281 47.3777C172.967 48.1287 173.792 48.722 174.747 49.1485C175.702 49.575 176.768 49.7882 177.945 49.7882C178.872 49.7882 179.762 49.5657 180.634 49.13C181.505 48.6942 182.312 47.9896 183.063 47.0254L186.41 49.4081C185.381 50.8266 184.129 51.8557 182.646 52.4954C181.162 53.1351 179.586 53.4596 177.917 53.4596C176.156 53.4596 174.543 53.1722 173.069 52.6067C171.594 52.0411 170.334 51.2345 169.267 50.1962C168.201 49.1578 167.376 47.9062 166.773 46.4506C166.171 44.995 165.874 43.3726 165.874 41.5925C165.874 39.7661 166.171 38.1065 166.773 36.6232C167.376 35.1305 168.201 33.8604 169.267 32.8127C170.334 31.7651 171.594 30.9492 173.069 30.3837C174.543 29.8181 176.156 29.5307 177.917 29.5307C179.466 29.5307 180.893 29.7996 182.201 30.3558C183.508 30.9028 184.741 31.83 185.9 33.1372L182.738 35.4272ZM158.049 29.5029H162.11V53.4504H158.049V29.5029ZM136.253 49.7975H141.556L139.386 53.4504H138.339H134.686H133.87L124.701 37.3556L115.532 53.4504H111.063L124.701 29.5029L136.253 49.7975ZM144.263 39.6549C144.875 39.6549 145.478 39.627 146.089 39.5714C146.701 39.5158 147.258 39.3767 147.768 39.1635C148.277 38.9502 148.685 38.6257 149.001 38.1807C149.316 37.745 149.473 37.1238 149.473 36.3358C149.473 35.6404 149.325 35.0749 149.038 34.6484C148.741 34.2219 148.361 33.8975 147.888 33.6842C147.415 33.471 146.887 33.3319 146.312 33.2577C145.737 33.1928 145.181 33.1558 144.634 33.1558H135.947L139.804 39.6456H144.263V39.6549ZM49.317 0.576847C34.7891 0.567575 29.3747 19.9165 39.9995 27.5003C45.9052 31.7187 51.4957 28.4553 55.7233 35.2974C57.5312 38.2271 57.5776 41.4905 55.6956 44.2904C51.5792 50.4187 40.4167 47.7764 35.4659 44.207C27.7152 38.6257 18.991 41.8057 16.0242 48.9538C13.0203 56.2039 19.5287 61.201 11.1661 72.2337C7.68015 76.8322 5.3809 77.0826 3.17436 79.1037C-3.17639 84.8981 0.57845 95.8196 9.33043 95.8196C14.7077 95.8196 19.0652 91.5827 19.0652 87.1603C19.0652 79.9195 19.3248 74.9409 25.0544 69.3504C26.6954 67.7557 28.5217 66.5505 31.0435 65.6141C39.4895 62.4619 38.034 55.9443 50.6891 56.0184C53.7301 56.037 56.465 56.8158 58.6159 57.8449C60.9616 58.9667 62.547 60.5057 64.7349 61.4606C75.4524 66.1055 86.3646 53.8582 80.2919 43.7249C77.2139 38.5979 73.1902 39.0244 69.389 35.1583C66.8765 32.5995 63.3813 26.6474 63.3813 21.6873C63.2794 20.3893 63.8727 17.0332 63.9561 15.4663C64.3363 7.84544 57.8372 0.576847 49.317 0.576847ZM252.022 70.9728H253.783V62.5454H252.022V70.9728ZM247.804 64.5943C246.932 64.5943 246.079 64.8353 245.198 65.2803L245.792 66.4485C246.283 66.1982 246.83 66.0035 247.405 66.0035C248.425 66.0035 248.842 66.5783 248.842 67.2458V67.3663C248.313 67.1624 247.757 67.0511 247.247 67.0511C245.801 67.0511 244.661 67.8948 244.661 69.1279C244.661 70.3239 245.68 71.1119 247.015 71.1119C247.692 71.1119 248.397 70.843 248.851 70.3424V70.9728H250.548V67.2458C250.538 65.6234 249.435 64.5943 247.804 64.5943ZM247.405 69.8974C246.802 69.8974 246.357 69.5822 246.357 69.0815C246.357 68.5809 246.867 68.2008 247.497 68.2008C247.98 68.2008 248.434 68.2842 248.833 68.4325V69.0073C248.721 69.5822 248.082 69.8974 247.405 69.8974ZM240.813 69.5636C240.081 69.5636 239.534 69.1093 239.33 68.4325H243.826C243.826 66.0777 242.686 64.6035 240.73 64.6035C238.912 64.6035 237.522 65.9664 237.522 67.8485C237.522 69.7676 238.968 71.1304 240.822 71.1304C241.74 71.1304 242.806 70.7411 243.363 70.1662L242.241 69.0259C241.916 69.3319 241.314 69.5636 240.813 69.5636ZM240.804 66.1518C241.518 66.1518 241.972 66.5505 242.139 67.1624H239.357C239.589 66.5412 240.145 66.1518 240.804 66.1518ZM228.825 70.9728H231.792C234.574 70.9728 236.548 69.2484 236.548 66.8287C236.548 64.4089 234.574 62.6937 231.792 62.6937H228.825V70.9728ZM230.596 69.3597V64.3069H232.015C233.591 64.3069 234.713 65.3545 234.713 66.8287C234.713 68.312 233.591 69.3597 232.015 69.3597H230.596ZM220.759 71.1212C222.604 71.1212 224.143 69.6285 224.143 67.8577C224.143 66.0869 222.604 64.6035 220.759 64.6035C218.905 64.6035 217.348 66.0869 217.348 67.8577C217.348 69.6285 218.905 71.1212 220.759 71.1212ZM220.759 69.6378C219.823 69.6378 219.035 68.8219 219.035 67.8577C219.035 66.8935 219.814 66.0869 220.759 66.0869C221.687 66.0869 222.475 66.8935 222.475 67.8577C222.475 68.8219 221.687 69.6378 220.759 69.6378ZM212.193 70.9728H213.973V64.2976H216.55V62.6937H209.606V64.2976H212.184V70.9728H212.193ZM202.43 69.5636C201.698 69.5636 201.151 69.1093 200.947 68.4325H205.443C205.443 66.0777 204.303 64.6035 202.347 64.6035C200.53 64.6035 199.139 65.9664 199.139 67.8485C199.139 69.7676 200.585 71.1304 202.44 71.1304C203.357 71.1304 204.433 70.7411 204.98 70.1662L203.858 69.0259C203.524 69.3319 202.922 69.5636 202.43 69.5636ZM202.421 66.1518C203.135 66.1518 203.589 66.5505 203.756 67.1624H200.975C201.197 66.5412 201.754 66.1518 202.421 66.1518ZM195.931 71.1212C196.97 71.1212 197.813 70.7039 198.425 70.0272L197.257 69.0352C196.933 69.3968 196.423 69.6378 195.941 69.6378C195.013 69.6378 194.244 68.8219 194.244 67.8392C194.244 66.8842 195.013 66.0777 195.931 66.0777C196.413 66.0777 196.905 66.3095 197.22 66.6525L198.388 65.6512C197.785 65.0022 196.951 64.5943 195.941 64.5943C194.096 64.5943 192.529 66.0777 192.529 67.8485C192.529 69.6192 194.086 71.1212 195.931 71.1212ZM188.663 64.5943C187.791 64.5943 186.938 64.8353 186.057 65.2803L186.651 66.4485C187.142 66.1982 187.689 66.0035 188.264 66.0035C189.284 66.0035 189.701 66.5783 189.701 67.2458V67.3663C189.173 67.1624 188.616 67.0511 188.106 67.0511C186.66 67.0511 185.52 67.8948 185.52 69.1279C185.52 70.3239 186.54 71.1119 187.875 71.1119C188.551 71.1119 189.256 70.843 189.71 70.3424V70.9728H191.407V67.2458C191.398 65.6234 190.294 64.5943 188.663 64.5943ZM188.264 69.8974C187.661 69.8974 187.216 69.5822 187.216 69.0815C187.216 68.5809 187.726 68.2008 188.357 68.2008C188.839 68.2008 189.293 68.2842 189.692 68.4325V69.0073C189.58 69.5822 188.941 69.8974 188.264 69.8974ZM181.774 64.5943C180.903 64.5943 180.18 64.9651 179.688 65.6048V64.7334H177.927V73.0403H179.688V70.0921C180.18 70.741 180.903 71.1119 181.774 71.1119C183.434 71.1119 184.639 69.7583 184.639 67.8485C184.639 65.9479 183.434 64.5943 181.774 64.5943ZM181.264 69.6378C180.411 69.6378 179.781 69.0074 179.688 68.0988V67.6167C179.781 66.7081 180.411 66.0869 181.264 66.0869C182.238 66.0869 182.924 66.8194 182.924 67.8577C182.924 68.8961 182.238 69.6378 181.264 69.6378ZM173.476 71.1212C175.498 71.1212 176.694 70.0735 176.694 68.4974C176.694 66.9677 175.516 66.4392 173.727 66.0406C172.447 65.7532 171.956 65.5585 171.956 64.9559C171.956 64.4645 172.41 64.0658 173.171 64.0658C173.968 64.0658 174.793 64.3903 175.535 64.9836L176.462 63.7043C175.618 62.9811 174.571 62.5546 173.217 62.5546C171.409 62.5546 170.157 63.6023 170.157 65.132C170.157 66.7359 171.4 67.2273 173.143 67.626C174.413 67.9134 174.895 68.0988 174.895 68.6829C174.895 69.2021 174.441 69.61 173.541 69.61C172.494 69.61 171.604 69.202 170.816 68.5252L169.796 69.7398C170.769 70.6391 172.049 71.1212 173.476 71.1212ZM163.223 71.1212C164.752 71.1212 165.754 70.3331 165.754 69.1093C165.754 67.7465 164.558 67.3849 163.491 67.1068C162.648 66.875 162.397 66.7822 162.397 66.4392C162.397 66.226 162.694 66.0684 163.13 66.0684C163.658 66.0684 164.307 66.2723 164.882 66.6246L165.596 65.3731C164.91 64.9188 164.029 64.6035 163.139 64.6035C161.665 64.6035 160.692 65.4472 160.701 66.6246C160.71 67.8577 161.702 68.2008 162.982 68.516C163.621 68.6829 164.076 68.8034 164.076 69.1928C164.076 69.4709 163.742 69.6656 163.269 69.6656C162.435 69.6656 161.739 69.3689 161.183 68.9703L160.423 70.1848C161.164 70.7782 162.221 71.1212 163.223 71.1212ZM156.38 64.038H157.576L159.357 62.4433L157.78 62.1559L156.38 64.038ZM152.181 69.5636C151.448 69.5636 150.901 69.1093 150.697 68.4325H155.194C155.194 66.0777 154.053 64.6035 152.097 64.6035C150.28 64.6035 148.889 65.9664 148.889 67.8485C148.889 69.7676 150.336 71.1304 152.19 71.1304C153.108 71.1304 154.174 70.7411 154.73 70.1662L153.608 69.0259C153.284 69.3319 152.672 69.5636 152.181 69.5636ZM152.171 66.1518C152.885 66.1518 153.34 66.5505 153.506 67.1624H150.725C150.957 66.5412 151.504 66.1518 152.171 66.1518ZM146.099 65.9015V64.7426H144.337V70.9728H146.099V67.9968C146.099 66.8286 146.933 66.0777 148.231 66.0777V64.5943C147.276 64.5943 146.507 65.0949 146.099 65.9015ZM140.128 69.5636C139.396 69.5636 138.849 69.1093 138.645 68.4325H143.141C143.141 66.0777 142.001 64.6035 140.045 64.6035C138.227 64.6035 136.837 65.9664 136.837 67.8485C136.837 69.7676 138.283 71.1304 140.137 71.1304C141.055 71.1304 142.131 70.7411 142.678 70.1662L141.556 69.0259C141.231 69.3319 140.619 69.5636 140.128 69.5636ZM140.119 66.1518C140.833 66.1518 141.287 66.5505 141.454 67.1624H138.673C138.904 66.5412 139.451 66.1518 140.119 66.1518Z" fill="#231F20"/>
</svg>
