<svg width="869" height="201" viewBox="0 0 869 201" fill="none" xmlns="http://www.w3.org/2000/svg">
<path d="M193.232 196.024L197.562 200.355L201.893 196.024L197.562 191.694L193.232 196.024ZM9.6875 1.77441H859.688V0.274414H9.6875V1.77441ZM2.4375 55.0318V9.02442H0.9375V55.0318H2.4375ZM859.688 195.274H197.562V196.774H859.688V195.274ZM866.938 9.02441V98.5244H868.438V9.02441H866.938ZM866.938 98.5244V188.024H868.438V98.5244H866.938ZM859.688 196.774C864.52 196.774 868.438 192.857 868.438 188.024H866.938C866.938 192.028 863.692 195.274 859.688 195.274V196.774ZM859.688 1.77441C863.692 1.77441 866.938 5.02035 866.938 9.02441H868.438C868.438 4.19192 864.52 0.274414 859.688 0.274414V1.77441ZM9.6875 0.274414C4.85501 0.274414 0.9375 4.19193 0.9375 9.02442H2.4375C2.4375 5.02035 5.68344 1.77441 9.6875 1.77441V0.274414Z" fill="#231F20"/>
</svg>
